<svg width="309" height="25" viewBox="0 0 309 25" fill="none" xmlns="http://www.w3.org/2000/svg">
<g clip-path="url(#clip0)">
<path d="M31.5775 10.4427C33.0413 8.1811 34.3699 5.77083 37.4882 5.21187C37.3291 8.07608 35.1658 10.0385 31.5775 10.4427ZM42.6819 20.0947C42.0371 19.6644 41.3448 19.2897 40.6368 18.9699C38.0435 17.7973 35.8645 16.1641 34.2841 13.6501C35.062 13.1969 35.728 12.7901 36.4116 12.4143C38.5353 11.2461 39.826 9.38452 40.6458 7.21031C41.2476 5.6142 40.8728 4.08236 39.6417 2.88183C38.4209 1.69182 36.9026 1.65234 35.4484 2.33735C34.4283 2.8179 33.5124 3.53606 32.6018 4.21629C31.9978 4.66766 31.4861 5.23976 30.8382 5.84662C30.5925 5.1253 30.5184 4.62077 30.2659 4.22976C29.8279 3.55209 29.1672 2.88837 28.3365 3.26995C27.9187 3.46209 27.6561 4.26129 27.5621 4.82503C26.8732 8.95087 26.2542 13.0883 25.5924 17.2186C25.3736 18.5857 25.9406 19.7079 27.0028 19.8778C28.0452 20.0449 28.5168 19.4765 28.8414 17.783C29.0902 16.4859 29.4025 15.2009 29.6866 13.9107C29.8919 13.8643 30.0975 13.818 30.3028 13.7717C31.2795 14.7873 32.3227 15.7486 33.22 16.8288C35.3305 19.3691 38.1891 20.8744 40.9624 22.5097C41.753 22.9757 42.4848 22.9992 43.0053 22.1597C43.4669 21.4157 43.4969 20.6384 42.6819 20.0947" fill="#413268"/>
<path d="M56.8758 16.8239C56.2741 17.0705 55.771 17.5418 55.1857 17.8389C53.8858 18.4979 52.5968 19.2013 51.2323 19.6953C50.719 19.8814 49.7183 19.7559 49.4443 19.3956C48.5095 18.1666 48.6584 16.6379 48.8447 15.2C48.9759 14.181 49.9222 13.936 50.7659 13.6373C52.4934 13.0255 54.2325 12.435 55.9206 11.7281C57.2368 11.1765 58.2763 10.3104 58.2858 8.6317C55.0694 7.6991 52.6573 10.3751 49.6816 10.4865C49.5626 8.50592 50.1833 7.25143 52.1304 6.81515C53.2712 6.55962 54.3691 6.12353 55.4943 5.79457C57.2402 5.28431 58.9921 4.79616 60.7067 4.30827C60.515 2.224 60.0677 1.73429 58.3245 1.92825C57.0212 2.07323 55.7309 2.40219 54.4575 2.7356C52.4329 3.26614 50.4675 4.1385 48.2888 3.5251C48.0365 3.45403 47.7221 3.60089 47.6608 3.61059C46.79 4.68796 46.0482 5.6056 45.2266 6.62247C47.0008 8.16065 46.0496 9.9586 45.7325 11.6899C44.7629 12.0068 43.9033 12.2876 42.627 12.7049C43.6329 13.661 44.3367 14.3295 45.2434 15.1913C45.2434 15.8744 45.1958 16.8184 45.2521 17.7566C45.4428 20.9453 48.5462 23.4306 51.6681 22.7056C53.4303 22.2961 55.1156 21.5111 56.7881 20.7877C57.8459 20.3303 58.5258 19.4392 58.695 18.2764C58.8426 17.2603 57.8248 16.4352 56.8758 16.8239" fill="#413268"/>
<path d="M69.5085 6.81515C70.6486 6.55962 71.7466 6.12353 72.8717 5.79457C74.6176 5.28431 76.3696 4.79616 78.0849 4.30827C77.8931 2.224 77.4458 1.73429 75.7027 1.92825C74.3987 2.07323 73.1083 2.40219 71.835 2.7356C69.8111 3.26614 67.8449 4.1385 65.6667 3.5251C65.4145 3.45403 65.0997 3.60089 65.0385 3.61059C64.1676 4.68796 63.4259 5.6056 62.604 6.62247C64.3784 8.16065 63.4273 9.9586 63.1098 11.6899C62.1403 12.0068 61.281 12.2876 60.0049 12.7049C61.0104 13.661 61.714 14.3295 62.621 15.1913C62.621 15.8744 62.5734 16.8184 62.6298 17.7566C62.8202 20.9453 65.9244 23.4306 69.0456 22.7056C70.8084 22.2961 72.4931 21.5111 74.1662 20.7877C75.2234 20.3303 75.9032 19.4392 76.0725 18.2764C76.22 17.2603 75.2023 16.4352 74.2532 16.8239C73.6515 17.0705 73.1485 17.5418 72.5631 17.8389C71.2639 18.4979 69.9742 19.2013 68.6098 19.6953C68.0965 19.8814 67.0957 19.7559 66.8218 19.3956C65.887 18.1666 66.0358 16.6379 66.2221 15.2C66.354 14.181 67.3004 13.936 68.1434 13.6373C69.8709 13.0255 71.6099 12.435 73.298 11.7281C74.6149 11.1765 75.6537 10.3104 75.6632 8.6317C72.4468 7.6991 70.0347 10.3751 67.059 10.4865C66.94 8.50592 67.5608 7.25143 69.5085 6.81515" fill="#413268"/>
<path d="M182.308 6.81515C183.449 6.55962 184.547 6.12353 185.672 5.79457C187.418 5.28431 189.17 4.79616 190.885 4.30827C190.694 2.224 190.246 1.73429 188.502 1.92825C187.199 2.07323 185.909 2.40219 184.635 2.7356C182.611 3.26614 180.645 4.1385 178.467 3.5251C178.214 3.45403 177.9 3.60089 177.839 3.61059C176.968 4.68796 176.226 5.6056 175.404 6.62247C177.179 8.16065 176.228 9.9586 175.91 11.6899C174.941 12.0068 174.081 12.2876 172.805 12.7049C173.811 13.661 174.515 14.3295 175.421 15.1913C175.421 15.8744 175.374 16.8184 175.43 17.7566C175.621 20.9453 178.724 23.4306 181.846 22.7056C183.608 22.2961 185.294 21.5111 186.966 20.7877C188.024 20.3303 188.704 19.4392 188.872 18.2764C189.021 17.2603 188.003 16.4352 187.054 16.8239C186.452 17.0705 185.949 17.5418 185.363 17.8389C184.064 18.4979 182.775 19.2013 181.41 19.6953C180.897 19.8814 179.896 19.7559 179.622 19.3956C178.687 18.1666 178.836 16.6379 179.022 15.2C179.154 14.181 180.101 13.936 180.944 13.6373C182.671 13.0255 184.41 12.435 186.099 11.7281C187.415 11.1765 188.454 10.3104 188.464 8.6317C185.247 7.6991 182.835 10.3751 179.86 10.4865C179.741 8.50592 180.361 7.25143 182.308 6.81515" fill="#413268"/>
<path d="M96.1282 1.90924C94.9174 1.72613 94.5897 2.82506 94.3157 3.87825C93.4408 7.23856 92.6032 10.6131 91.7371 13.9765C91.5963 14.5212 91.3795 15.0381 91.0912 15.8797C89.622 13.8452 88.3759 12.0449 87.061 10.3207C85.9427 8.85488 84.8345 7.3446 83.5585 6.09193C81.8813 4.44536 80.0395 5.17982 79.7594 7.69566C79.3318 11.5315 79.1802 15.4129 78.9722 19.2797C78.9348 19.9714 79.1428 20.7047 79.3243 21.385C79.5834 22.3514 80.2238 22.9809 81.0382 22.8019C81.712 22.654 82.4707 22.2263 82.9106 21.6274C83.3191 21.0703 83.4551 20.1379 83.5381 19.345C83.7617 17.2069 83.8929 15.0549 84.0989 12.4181C85.0738 13.5963 85.8346 14.45 86.5314 15.3721C87.9483 17.245 89.2576 19.2445 90.7649 21.004C91.3407 21.6761 92.3557 22.1924 93.1369 22.1337C94.0982 22.0611 94.3511 20.918 94.5714 19.7334C95.3573 15.5118 96.3383 11.342 97.2384 7.15064C97.407 6.36666 97.6123 5.58195 97.6831 4.78275C97.8054 3.39952 97.063 2.05058 96.1282 1.90924Z" fill="#413268"/>
<path d="M113.485 8.97927C113.663 7.42445 113.886 5.89449 114 4.35652C114.105 2.91939 112.99 1.8902 111.453 1.88885C110.344 1.88811 110.006 2.36623 109.928 4.02708C109.885 4.96446 109.843 5.90237 109.778 6.8384C109.716 7.74082 109.625 8.64107 109.538 9.64528C108.129 9.71238 106.984 9.76715 105.704 9.82818C105.805 8.49663 106.052 7.40606 105.917 6.36473C105.805 5.50658 105.364 4.60915 104.822 3.92024C104.537 3.55813 103.619 3.35918 103.175 3.5402C102.765 3.70761 102.408 4.46862 102.377 4.98945C102.276 6.62053 102.34 8.26158 102.34 9.89899C101.24 10.7756 99.5055 10.2995 99.6435 11.663C99.7115 12.3372 100.855 12.9024 101.506 13.5238C101.614 13.6267 101.688 13.7632 101.926 14.0825C101.817 15.2151 101.699 16.5328 101.561 17.848C101.471 18.7017 101.318 19.5494 101.251 20.4044C101.183 21.2865 101.645 21.882 102.426 22.2665C103.755 22.9205 104.868 22.2576 105.018 20.7062C105.269 18.0925 105.513 15.4778 105.762 12.8508C107.132 12.8508 108.192 12.8508 109.597 12.8508C109.411 15.4238 109.293 17.8241 109.043 20.2112C108.895 21.6286 109.382 22.546 110.684 22.7976C111.667 22.9878 112.594 22.3975 112.835 21.112C113.108 19.6633 113.166 18.1688 113.232 16.6904C113.294 15.3067 113.246 13.9185 113.246 12.5719C114.959 11.8611 116.958 12.6327 117.943 10.7672C117.168 8.70184 115.208 9.39871 113.485 8.97927" fill="#413268"/>
<path d="M132.358 12.3083C130.182 15.638 127.639 18.31 124.252 19.2931C122.089 19.921 120.917 18.7644 121.386 15.9057C121.735 13.782 122.576 11.7314 123.433 9.82903C124.779 6.84214 127.017 5.36292 129.491 5.34109C131.094 5.26974 132.231 6.07211 132.893 7.73007C133.542 9.35273 133.207 11.0104 132.358 12.3083V12.3083ZM126.252 2.66208C125.596 2.99105 124.891 3.32608 124.205 3.34184C123.131 3.36656 122.504 4.02213 122.023 5.16815C121.137 7.28186 120.15 9.32901 119.34 11.4898C118.86 12.7715 118.636 14.2175 118.297 15.5896C118.37 19.5015 120.85 23.6887 124.842 22.6871C128.909 21.6668 131.95 18.7113 134.536 14.8149C135.942 12.6986 136.395 10.1577 135.504 7.35348C134.328 3.65497 130.89 0.336291 126.252 2.66208" fill="#413268"/>
<path d="M288.979 12.3334C286.802 15.6629 284.26 18.3351 280.873 19.318C278.71 19.9462 277.538 18.7893 278.007 15.9308C278.355 13.8069 279.197 11.7565 280.054 9.85389C281.399 6.86701 283.637 5.38778 286.112 5.36622C287.714 5.29488 288.852 6.09698 289.514 7.75521C290.163 9.37786 289.827 11.0352 288.979 12.3334V12.3334ZM282.873 2.68721C282.217 3.01618 281.513 3.35094 280.826 3.36697C279.752 3.39169 279.124 4.047 278.644 5.19329C277.758 7.307 276.771 9.35415 275.961 11.515C275.48 12.7966 275.257 14.2427 274.918 15.6148C274.99 19.5266 277.47 23.7138 281.463 22.7122C285.53 21.692 288.571 18.7361 291.158 14.84C292.562 12.7234 293.016 10.1826 292.125 7.37861C290.95 3.6799 287.511 0.361421 282.873 2.68721Z" fill="#413268"/>
<path d="M156.229 9.33663C156.101 7.58267 155.97 5.82082 155.67 4.0897C155.367 2.33022 154.381 1.73232 152.51 1.97363C152.047 2.03339 151.606 2.2489 151.387 2.3189C149.408 8.13557 147.546 13.7228 143.657 18.7312C143.274 18.0568 143.038 17.7341 142.896 17.3759C141.928 14.936 141.835 12.3777 141.818 9.80558C141.807 8.12108 141.831 6.42742 141.658 4.75551C141.519 3.40974 140.432 2.73895 139.02 2.86473C137.86 2.96814 137.308 3.6297 137.38 5.08448C137.552 8.52004 137.66 11.9664 138.047 15.3815C138.309 17.7005 139.175 19.8965 140.991 21.5931C142.7 23.19 144.6 23.2974 146.199 21.6387C147.309 20.4871 148.219 19.1178 149.029 17.7409C149.959 16.1607 150.68 14.4646 151.491 12.8188C151.689 12.8635 151.886 12.9085 152.084 12.9536C152.145 13.8099 152.219 14.6657 152.265 15.5225C152.334 16.8023 152.285 18.096 152.465 19.3602C152.691 20.9547 153.962 22.0305 155.248 21.9171C156.519 21.8052 156.97 20.906 156.834 18.9218C156.617 15.7275 156.459 12.5296 156.229 9.33663" fill="#413268"/>
<path d="M248.647 9.34493C248.521 7.59097 248.388 5.82885 248.089 4.09807C247.786 2.33852 246.799 1.74061 244.929 1.98193C244.467 2.04169 244.026 2.2572 243.805 2.3272C241.828 8.14386 239.965 13.7311 236.077 18.7396C235.693 18.0651 235.457 17.7424 235.315 17.3842C234.347 14.9443 234.254 12.386 234.237 9.81388C234.226 8.12938 234.25 6.43572 234.077 4.76381C234.065 4.64174 234.035 4.53145 234.008 4.4207C235.367 4.35198 237.551 4.4207 237.396 3.22617C235.579 2.28853 231.437 2.06432 229.684 2.42434C226.311 3.11697 222.974 3.97909 219.618 4.75802C217.758 5.18992 215.901 5.5494 213.997 5.39755C214.021 5.31119 214.05 5.2325 214.071 5.14229C212.222 2.07618 207.655 0.761131 203.794 3.088C201.405 4.52802 200.388 7.32627 201.4 9.93576C202.157 11.8871 203.375 13.5071 205.152 14.6587C206.679 15.6492 208.253 16.57 209.793 17.5416C210.399 17.9235 210.969 18.3604 211.65 18.8385C209.029 20.3533 208.264 20.2875 206.677 18.4954C205.908 17.6272 204.925 17.518 203.985 17.8985C203.443 18.1177 202.817 18.7377 202.711 19.2717C202.524 20.2082 203.071 20.9153 204.001 21.4175C207.236 23.1641 210.567 23.3138 213.853 21.8351C216.18 20.7883 216.322 18.8027 214.332 17.2288C213.209 16.3414 211.917 15.6682 210.727 14.8611C209.102 13.7587 207.438 12.6976 205.913 11.4705C204.955 10.7007 204.338 9.60625 204.661 8.26385C205.279 5.69149 207.766 4.45176 210.399 5.37674C210.151 5.53229 209.925 5.74572 209.738 6.04935C210.059 6.67676 210.326 7.15414 210.666 7.51174C210.784 7.70469 210.941 7.83545 211.151 7.90464C212.256 8.58203 214.215 8.53784 219.258 8.29201C218.471 12.6768 220.1 16.5932 220.759 20.629C221.017 22.2093 222.126 23.0154 223.164 22.8123C224.195 22.6104 224.759 21.5193 224.536 19.8962C224.364 18.6412 224.084 17.3974 223.793 16.1622C223.092 13.1902 222.794 10.2118 223.439 7.18284C223.705 7.08206 223.918 6.97885 224.144 6.91936C226.033 6.41988 227.926 5.93308 229.815 5.4336C229.978 8.75599 230.091 12.0873 230.465 15.3895C230.728 17.7088 231.595 19.9048 233.41 21.6014C235.119 23.1983 237.019 23.3057 238.618 21.647C239.728 20.4954 240.639 19.1261 241.448 17.7492C242.378 16.169 243.098 14.4727 243.91 12.8271C244.107 12.8718 244.305 12.9168 244.503 12.9618C244.564 13.8182 244.638 14.6737 244.684 15.5308C244.752 16.8106 244.705 18.1043 244.884 19.3685C245.109 20.963 246.381 22.0388 247.668 21.9254C248.938 21.8135 249.389 20.9143 249.254 18.9301C249.036 15.7358 248.878 12.5379 248.647 9.34493" fill="#413268"/>
<path d="M171.59 17.2158C170.468 16.3285 169.176 15.6553 167.987 14.8482C166.361 13.7461 164.697 12.685 163.171 11.4577C162.214 10.6879 161.597 9.59367 161.92 8.251C162.542 5.66173 165.058 4.42019 167.709 5.3802C167.567 7.17707 167.828 7.86127 168.69 7.95128C169.892 8.07679 170.88 7.02044 171.33 5.12938C169.481 2.06327 164.914 0.748289 161.053 3.07543C158.664 4.51545 157.647 7.31336 158.659 9.92284C159.416 11.8742 160.634 13.4942 162.41 14.6461C163.939 15.6364 165.512 16.5572 167.052 17.5288C167.658 17.9109 168.228 18.3474 168.908 18.8259C166.288 20.3404 165.523 20.2749 163.936 18.4827C163.167 17.6143 162.184 17.5051 161.244 17.8856C160.703 18.1048 160.077 18.7248 159.97 19.2588C159.783 20.1954 160.329 20.9025 161.26 21.4046C164.495 23.1512 167.826 23.301 171.113 21.8222C173.439 20.7756 173.581 18.7899 171.59 17.2158" fill="#413268"/>
<path d="M307.334 17.2779C306.211 16.3907 304.919 15.7173 303.729 14.9105C302.104 13.8081 300.44 12.747 298.914 11.5199C297.957 10.7499 297.34 9.65569 297.663 8.31329C298.285 5.72402 300.801 4.48247 303.452 5.44221C303.31 7.23909 303.571 7.92329 304.433 8.01329C305.635 8.1388 306.623 7.08272 307.073 5.19167C305.224 2.12528 300.657 0.810302 296.797 3.13744C294.408 4.57746 293.39 7.37564 294.402 9.98486C295.159 11.9365 296.377 13.5562 298.154 14.7081C299.681 15.6984 301.255 16.6192 302.795 17.5911C303.401 17.9729 303.97 18.4095 304.652 18.8879C302.031 20.4024 301.266 20.3369 299.679 18.5447C298.91 17.6763 297.927 17.5671 296.987 17.9479C296.446 18.1671 295.82 18.7871 295.713 19.321C295.526 20.2574 296.073 20.9645 297.003 21.4669C300.237 23.2135 303.569 23.3632 306.856 21.8845C309.182 20.8376 309.324 18.8519 307.334 17.2779" fill="#413268"/>
<path d="M264.061 11.4618C263.502 12.7624 262.653 13.9573 261.746 14.9547C259.964 16.9155 257.84 18.1082 255.138 18.4014C255.014 14.2253 254.331 10.2494 254.99 6.0496C257.833 6.14251 260.446 6.7204 262.944 7.88885C264.551 8.64042 264.874 9.56601 264.061 11.4618ZM264.704 5.33091C263.715 4.73907 262.691 4.1033 261.623 3.84615C258.499 3.09404 255.35 2.47802 252.197 1.92296C251.641 1.82481 250.728 2.07327 250.502 2.53091C250.258 3.02513 250.583 3.96641 250.738 4.68881C250.952 5.69147 251.439 6.6657 251.46 7.66256C251.544 11.7381 251.494 15.8176 251.494 19.8956C251.578 22.0667 253.08 23.3312 254.844 22.6698C256.333 22.1119 257.861 21.6801 259.313 21.008C262.275 19.6358 264.949 17.7187 266.639 14.3461C268.313 11.0052 268.02 7.31386 264.704 5.33091" fill="#413268"/>
<path d="M271.347 1.90304C270.338 1.87326 269.976 2.3883 269.888 3.98489C269.876 4.2099 269.89 4.4362 269.884 4.66148C269.723 9.90099 269.561 15.1403 269.4 20.3795C268.978 21.5867 270.027 22.8573 271.126 22.8451C272.489 22.8306 273.112 22.1446 273.144 20.7024C273.218 17.4793 273.288 14.2553 273.412 11.0337C273.498 8.79176 273.679 6.55388 273.802 4.31331C273.872 3.05647 272.722 1.94326 271.347 1.90304Z" fill="#413268"/>
<path d="M21.8938 8.34698C20.5535 7.93879 19.3178 7.82277 18.1171 7.99248C15.8761 8.30959 13.8554 9.06594 12.1738 9.76382L12.05 9.81462C11.9066 9.87276 11.7635 9.93117 11.6278 10.0036C11.2247 10.2188 10.7803 10.6712 10.9525 11.6023C11.0064 11.8917 11.1389 12.1083 11.346 12.2457C11.5957 12.4112 11.9441 12.4473 12.3793 12.3557C12.8148 12.2628 13.2268 12.086 13.6251 11.9147C13.7542 11.8591 13.8827 11.8038 14.0112 11.7515C15.9093 10.9841 18.063 10.1154 20.3917 10.4378C21.3693 10.5733 21.5016 10.6388 21.638 11.4615C21.7249 11.9899 21.6869 12.5634 21.6494 13.1178C21.6376 13.2965 21.6256 13.4755 21.6179 13.6533C21.5759 14.5563 21.1916 15.1184 20.3322 15.5331C17.1486 17.0671 13.7977 17.9811 10.3719 18.2486C8.57957 18.3871 6.67306 18.4087 4.85874 17.6132C3.78661 17.1426 3.12539 16.5113 2.89193 15.736C2.6569 14.9547 2.87629 14.0165 3.52637 13.0231C4.15129 12.0683 4.90708 11.1605 5.77334 10.3246C7.91141 8.26115 10.8257 5.6743 14.4144 3.97296L14.5315 3.91744C15.4686 3.47166 16.4367 3.01139 17.4803 2.94429L18.2516 4.95958L18.5155 4.74952C18.7655 4.55031 18.9956 4.373 19.2107 4.20794C19.649 3.8711 20.0274 3.58006 20.375 3.25298C20.827 2.82849 21.0286 2.3348 20.942 1.86268C20.8549 1.38187 20.4791 0.979467 19.8853 0.729729C19.1728 0.430273 18.5912 0.314736 18.1132 0.376851C17.1747 0.498722 15.9562 0.693149 14.8544 1.12216C10.3239 2.88636 6.20648 5.79193 2.61577 9.75776C1.64773 10.8267 0.953806 12.0641 0.552829 13.436C-0.00356126 15.3381 0.281161 16.8984 1.42229 18.2061C2.32446 19.2397 3.52025 19.6969 4.46171 19.9792C6.90516 20.713 9.51729 20.7805 12.2261 20.1826L12.9692 20.0197C14.7936 19.6221 16.6799 19.2103 18.4675 18.5032C19.0788 18.261 19.7183 18.0671 20.3955 17.8615C20.6188 17.7942 20.8467 17.7253 21.0799 17.6526C21.0442 19.215 20.818 20.5934 20.3723 21.9635C20.205 22.479 19.8935 23.4382 20.814 24.0356C21.0241 24.1719 21.4205 24.3606 21.7798 24.3606C21.8694 24.3606 21.9562 24.3487 22.0377 24.3222C23.0325 23.9938 23.1735 23.0588 23.1932 22.384C23.2139 21.6658 23.2432 20.9027 23.3513 20.1579C23.4078 19.7676 23.4662 19.3771 23.5249 18.9874C23.8957 16.515 24.2797 13.9586 24.1707 11.3849C24.0959 9.60806 23.5215 8.84147 21.8938 8.34698" fill="#413268"/>
</g>
<defs>
<clipPath id="clip0">
<rect x="0.277344" y="0.360596" width="308.444" height="24" fill="white"/>
</clipPath>
</defs>
</svg>
